<?xml version="1.0" standalone="no"?>
<!DOCTYPE svg PUBLIC "-//W3C//DTD SVG 20010904//EN"
 "http://www.w3.org/TR/2001/REC-SVG-20010904/DTD/svg10.dtd">
<svg version="1.0" xmlns="http://www.w3.org/2000/svg"
 width="300.000000pt" height="87.000000pt" viewBox="0 0 300.000000 87.000000"
 preserveAspectRatio="xMidYMid meet">
<metadata>
Created by potrace 1.10, written by Peter Selinger 2001-2011
</metadata>
<g transform="translate(0.000000,87.000000) scale(0.100000,-0.100000)"
fill="#000000" stroke="none">
<path d="M65 803 c-3 -10 -6 -184 -6 -388 0 -341 1 -370 17 -382 14 -10 101
-13 379 -13 338 0 363 1 378 18 15 17 17 58 17 380 0 349 -1 363 -20 382 -19
19 -33 20 -389 20 -342 0 -369 -1 -376 -17z m667 -22 c32 0 62 -7 70 -14 10
-11 13 -85 13 -356 0 -293 -2 -343 -15 -351 -9 -6 -155 -10 -351 -10 -273 0
-339 3 -348 14 -8 9 -11 113 -9 362 l3 349 255 5 c140 3 271 5 290 4 19 -1 61
-2 92 -3z"/>
<path d="M560 709 c-107 -37 -135 -57 -135 -97 0 -25 -3 -29 -17 -21 -9 5 -70
9 -136 9 -99 0 -121 -3 -126 -15 -3 -9 -9 -114 -12 -234 -8 -291 -34 -266 265
-256 194 6 228 9 239 23 9 11 12 44 11 97 -2 113 -1 125 15 125 20 0 56 48 56
75 0 12 11 34 25 49 14 15 25 33 25 40 0 28 -64 192 -83 214 -25 27 -24 28
-127 -9z m146 -103 c18 -55 34 -105 34 -112 0 -7 -16 -16 -35 -20 -42 -7 -50
-17 -30 -34 34 -29 5 -77 -40 -66 -20 5 -25 13 -25 36 0 35 1 35 -47 15 -42
-18 -45 -15 -61 41 -16 55 -16 54 21 52 28 -3 32 0 32 22 0 29 -33 41 -47 16
-16 -29 -34 -17 -49 32 l-15 47 100 37 c56 20 107 36 114 35 7 -1 29 -47 48
-101z m-358 -25 l52 -1 0 -40 c0 -38 1 -40 25 -34 31 8 55 -10 55 -41 0 -31
-24 -49 -55 -41 -23 6 -25 4 -25 -29 0 -35 0 -35 45 -35 37 0 45 -3 45 -18 0
-10 -5 -23 -11 -29 -7 -7 -5 -15 7 -27 15 -16 18 -16 33 -2 13 14 13 20 3 37
-19 29 -7 39 49 39 l49 0 0 -120 0 -120 -230 0 -230 0 0 229 0 230 43 3 c23 2
53 3 67 1 14 -1 49 -2 78 -2z m146 -177 c26 -10 18 -23 -13 -22 -23 1 -27 4
-17 14 13 16 11 15 30 8z"/>
<path d="M180 568 c0 -2 -1 -49 -3 -105 l-3 -103 39 0 c35 0 37 2 27 20 -16
30 4 62 37 58 35 -4 52 -32 35 -58 -11 -19 -10 -20 28 -20 l40 0 0 46 0 46 39
-7 c28 -5 40 -3 44 8 10 26 -8 39 -47 32 l-36 -7 0 46 0 46 -100 0 c-55 0
-100 -1 -100 -2z m175 -30 c10 -35 14 -85 6 -97 -7 -12 -14 -10 -36 8 -35 27
-55 27 -90 0 -21 -17 -29 -19 -35 -9 -13 21 -9 80 7 95 19 19 142 21 148 3z"/>
<path d="M400 298 c0 -33 3 -39 12 -30 7 7 20 12 29 12 11 0 18 10 21 30 4 28
3 30 -29 30 -32 0 -33 -1 -33 -42z"/>
<path d="M546 315 c8 -31 -10 -55 -42 -55 -19 0 -24 -5 -24 -25 0 -31 -32 -50
-60 -35 -19 10 -20 8 -20 -31 0 -33 3 -40 16 -35 9 3 56 6 105 6 l89 0 -2 100
-1 100 -34 0 c-31 0 -33 -2 -27 -25z m39 -79 c-1 -25 -7 -52 -14 -60 -16 -19
-91 -22 -91 -4 0 13 89 108 101 108 3 0 5 -20 4 -44z"/>
<path d="M1244 721 c-17 -11 -36 -34 -43 -52 -16 -48 -14 -311 3 -353 29 -70
97 -87 147 -37 17 17 29 39 28 53 l-1 23 -6 -22 c-13 -42 -39 -63 -80 -63 -75
0 -77 5 -80 212 -3 175 -2 185 18 211 17 21 30 27 59 27 40 0 63 -17 80 -60 7
-19 10 -20 10 -7 1 29 -17 55 -49 72 -38 19 -48 19 -86 -4z"/>
<path d="M2594 726 c-49 -22 -59 -60 -59 -231 0 -82 3 -163 8 -178 8 -30 59
-67 94 -67 30 0 83 47 83 73 -1 18 -3 16 -14 -9 -15 -35 -32 -44 -81 -44 -25
0 -39 7 -55 27 -20 26 -21 36 -18 206 3 174 4 179 27 198 23 19 77 25 96 11
35 -26 40 -47 46 -206 l6 -161 -1 167 c-1 165 -1 168 -26 192 -32 32 -67 39
-106 22z"/>
<path d="M960 495 l0 -235 40 0 40 0 0 83 c0 121 13 125 39 13 l22 -96 40 0
c34 0 39 3 35 18 -3 9 -19 79 -36 155 l-31 138 30 76 c17 41 31 77 31 79 0 2
-18 4 -39 4 l-39 0 -24 -67 -23 -68 -3 68 -3 67 -39 0 -40 0 0 -235z m70 145
c0 -44 3 -80 8 -80 4 0 20 36 35 80 25 70 31 80 53 80 30 0 30 0 -2 -81 l-26
-67 31 -140 c17 -77 31 -145 31 -151 0 -6 -11 -11 -25 -11 -19 0 -26 7 -31 27
-10 44 -23 100 -35 145 l-11 42 -14 -24 c-8 -15 -13 -57 -14 -107 0 -81 0 -83
-25 -83 l-24 0 -3 221 c-2 121 -1 223 1 225 2 2 15 4 28 4 22 0 23 -3 23 -80z"/>
<path d="M1420 495 l0 -236 36 3 37 3 0 152 c0 84 -2 156 -6 160 -4 3 -7 -64
-7 -150 l0 -157 -25 0 -25 0 0 226 0 225 37 -3 37 -3 15 -80 c9 -44 17 -71 19
-60 1 11 -3 49 -11 85 l-13 65 -47 3 -47 3 0 -236z"/>
<path d="M1586 708 c-3 -13 -10 -55 -17 -95 -7 -40 -16 -70 -21 -67 -4 3 -8
-6 -8 -20 0 -50 18 -34 29 27 34 180 29 167 67 167 l34 0 0 -225 0 -225 -25 0
-25 0 0 157 c0 86 -2 154 -5 151 -8 -8 -35 -169 -34 -198 1 -14 7 4 14 40 l13
65 1 -112 1 -113 40 0 40 0 -2 233 -3 232 -47 3 c-43 3 -48 1 -52 -20z"/>
<path d="M1720 495 l0 -235 85 0 85 0 0 40 0 40 -45 0 -45 0 0 55 c0 54 0 55
30 55 29 0 30 2 30 45 0 43 -1 45 -30 45 -30 0 -30 1 -30 55 l0 55 45 0 45 0
0 40 0 40 -85 0 -85 0 0 -235z m160 195 c0 -29 -2 -30 -45 -30 l-45 0 0 -65 0
-65 30 0 c27 0 30 -3 30 -29 0 -25 -4 -30 -27 -33 -27 -3 -28 -5 -31 -70 l-3
-68 46 0 c43 0 45 -1 45 -30 l0 -30 -75 0 -75 0 0 225 0 225 75 0 75 0 0 -30z"/>
<path d="M1920 495 l0 -235 35 0 35 0 1 113 c0 77 3 106 10 92 7 -15 7 -11 3
15 -14 81 -24 48 -24 -78 l0 -132 -25 0 -25 0 0 225 0 225 24 0 c22 0 26 -9
56 -117 18 -65 36 -125 41 -133 5 -9 9 39 9 118 l0 132 25 0 25 0 0 -225 0
-225 -23 0 c-22 0 -26 9 -47 86 -12 47 -25 83 -28 80 -3 -3 6 -44 19 -91 l24
-86 35 3 35 3 0 230 0 230 -37 3 -38 3 -1 -108 0 -108 -18 60 c-10 33 -24 81
-31 108 -12 44 -15 47 -46 47 l-34 0 0 -235z"/>
<path d="M2180 546 c0 -192 -3 -216 -26 -216 -21 0 -19 -69 3 -77 23 -9 87 28
91 52 4 16 0 15 -18 -8 -28 -36 -80 -39 -80 -4 0 12 9 28 20 35 19 11 20 23
20 202 l0 190 30 0 30 0 3 -197 2 -198 3 203 2 202 -40 0 -40 0 0 -184z"/>
<path d="M2290 495 l0 -235 40 0 40 0 0 235 0 235 -40 0 -40 0 0 -235z m70 0
l0 -225 -30 0 -30 0 0 225 0 225 30 0 30 0 0 -225z"/>
<path d="M2429 663 c-1 -37 0 -115 0 -173 2 -119 -5 -160 -25 -160 -10 0 -14
-12 -14 -40 0 -45 9 -49 65 -26 49 21 56 59 53 278 l-3 183 -37 3 -38 3 -1
-68z m61 -152 c0 -206 0 -210 -22 -225 -34 -24 -68 -21 -68 7 0 12 9 28 20 35
19 11 20 23 20 202 l0 190 25 0 25 0 0 -209z"/>
<path d="M2764 716 c-3 -8 -4 -103 -2 -211 l3 -197 33 -29 c39 -35 78 -38 115
-8 41 32 48 76 45 274 l-3 180 -37 3 -38 3 2 -193 3 -193 2 188 3 187 25 0 25
0 0 -196 c0 -236 -6 -254 -82 -254 -43 0 -73 26 -82 72 -3 17 -6 109 -6 204
l0 174 30 0 30 0 0 -184 c0 -101 3 -191 6 -200 6 -17 44 -23 44 -7 0 5 -8 8
-17 7 -17 -1 -18 15 -21 197 l-2 197 -36 0 c-21 0 -37 -6 -40 -14z"/>
<path d="M1272 658 c-13 -13 -18 -291 -6 -322 8 -21 40 -21 48 0 3 9 6 82 6
163 0 138 -6 171 -30 171 -3 0 -11 -5 -18 -12z m32 -14 c9 -24 7 -287 -3 -303
-22 -35 -31 5 -31 144 0 140 4 175 20 175 4 0 11 -7 14 -16z"/>
<path d="M2610 644 c-13 -34 -13 -280 0 -305 13 -23 36 -25 44 -3 3 9 6 80 6
159 0 79 -3 150 -6 159 -9 24 -33 19 -44 -10z m38 -144 c2 -144 -4 -187 -25
-166 -10 10 -17 248 -8 293 3 20 11 33 18 30 8 -2 13 -49 15 -157z"/>
<path d="M1501 492 c0 -13 6 -70 15 -128 15 -97 18 -105 38 -102 17 2 21 10
23 48 l1 45 -7 -38 c-8 -37 -17 -54 -25 -46 -2 2 -13 58 -24 124 -11 66 -20
110 -21 97z"/>
<path d="M1635 135 c0 -64 0 -65 28 -65 15 0 27 5 27 10 0 6 -4 10 -10 10 -5
0 -10 25 -10 55 0 46 -3 55 -17 55 -15 0 -18 -10 -18 -65z m27 0 c1 -30 0 -55
-4 -55 -3 0 -8 25 -10 55 -1 30 0 55 4 55 3 0 8 -25 10 -55z"/>
<path d="M2495 136 l0 -64 33 -4 c41 -5 72 15 72 47 0 26 -14 39 -45 40 -13 0
-21 8 -23 23 -2 13 -10 22 -20 22 -15 0 -17 -10 -17 -64z m26 32 c1 -13 1 -34
2 -48 0 -21 1 -22 4 -4 5 25 52 39 60 18 11 -30 -2 -46 -42 -49 l-40 -3 0 54
c0 51 14 79 16 32z"/>
<path d="M964 154 c-10 -8 -13 -12 -5 -8 11 5 13 3 8 -10 -4 -10 -7 -23 -8
-29 0 -7 -4 -3 -9 8 -6 14 -9 16 -9 4 -1 -20 20 -47 39 -49 33 -5 50 1 50 15
0 11 -7 14 -25 9 -18 -4 -27 -1 -31 11 -10 24 11 41 30 25 13 -10 17 -9 22 5
13 32 -30 45 -62 19z"/>
<path d="M1105 159 c16 -7 13 -8 -12 -4 -25 3 -33 1 -33 -10 0 -12 7 -14 26
-9 19 5 25 4 20 -5 -4 -6 -3 -11 3 -11 5 0 11 8 13 18 3 9 6 0 9 -20 5 -39 -4
-47 -31 -27 -13 9 -12 10 3 5 9 -3 17 -2 17 3 0 14 -44 21 -55 9 -7 -8 -6 -9
3 -4 7 5 12 1 12 -9 0 -9 -4 -13 -10 -10 -5 3 -10 2 -10 -2 0 -5 20 -10 44
-11 l45 -2 -6 38 c-7 44 -19 62 -42 61 -12 0 -12 -2 4 -10z"/>
<path d="M1224 162 c-6 -4 -11 -24 -10 -45 0 -20 -2 -37 -6 -37 -5 0 -8 15 -8
34 0 19 -3 37 -7 39 -5 3 -8 -15 -8 -39 0 -39 3 -44 22 -44 19 0 21 4 16 36
-6 34 -5 36 16 29 18 -6 22 -3 19 11 -4 20 -18 27 -34 16z"/>
<path d="M1760 159 c12 -8 12 -10 -5 -8 -42 3 -46 0 -43 -32 2 -20 12 -38 28
-48 14 -9 21 -11 16 -4 -5 9 -1 12 15 10 12 -1 24 4 26 10 3 9 -4 11 -26 7
-20 -4 -31 -2 -31 5 0 6 13 11 29 11 17 0 32 4 36 10 7 11 -30 50 -47 50 -9 0
-8 -4 2 -11z m30 -26 c0 -8 -9 -9 -31 -3 -30 9 -31 8 -27 -20 2 -16 1 -27 -4
-24 -8 5 -11 47 -4 55 10 10 66 3 66 -8z"/>
<path d="M1931 163 c4 -20 -2 -24 -18 -12 -18 15 -17 13 12 -43 10 -21 24 -38
31 -38 17 0 26 29 14 48 -8 14 -9 14 -10 2 0 -13 -2 -13 -9 -1 -5 8 -7 20 -4
27 2 6 -1 15 -7 19 -6 3 -10 3 -9 -2z"/>
<path d="M2049 149 c-11 -11 -18 -27 -15 -36 3 -8 6 -18 6 -22 0 -15 45 -28
68 -20 33 13 18 28 -23 24 -34 -3 -35 -2 -34 28 1 24 3 26 6 10 4 -19 11 -23
39 -23 27 0 34 4 34 20 0 18 -26 40 -49 40 -6 0 -20 -9 -32 -21z"/>
<path d="M2297 163 c-11 -11 24 -42 40 -36 11 4 14 2 11 -8 -3 -8 -9 -14 -14
-15 -5 0 -17 -4 -26 -8 -34 -15 -18 -26 39 -26 l56 0 -24 26 c-22 24 -23 26
-6 38 19 14 23 36 7 36 -5 0 -9 -3 -9 -7 3 -21 -3 -23 -18 -7 -17 17 -18 17
-21 -4 -3 -17 -6 -19 -17 -9 -7 6 -11 15 -8 20 5 9 -1 9 -10 0z"/>
<path d="M2720 150 c-23 -23 -25 -40 -7 -62 17 -21 38 -27 65 -17 30 11 19 31
-13 23 -12 -3 -26 -1 -29 5 -5 7 5 11 28 11 36 0 41 5 30 34 -4 11 -14 14 -33
10 -20 -4 -23 -3 -11 5 10 7 11 11 3 11 -7 0 -22 -9 -33 -20z"/>
<path d="M2868 163 c-10 -2 -15 -10 -11 -19 3 -8 0 -14 -6 -14 -15 0 -14 -37
2 -44 6 -3 2 -3 -10 0 -13 3 -23 1 -23 -5 0 -6 13 -11 29 -11 28 0 29 2 24 35
-4 23 -2 35 6 35 6 0 11 -16 11 -35 0 -31 3 -35 25 -35 14 0 25 5 25 10 0 6
-4 10 -10 10 -5 0 -10 15 -10 34 0 22 -6 36 -16 40 -9 3 -16 5 -17 5 -1 -1
-10 -3 -19 -6z"/>
<path d="M1370 151 c0 -6 5 -11 10 -11 6 0 10 -16 10 -35 0 -29 -4 -35 -21
-35 -12 0 -19 -5 -17 -12 7 -21 41 -22 55 -2 14 19 18 104 5 104 -4 0 -7 -17
-6 -37 1 -22 -1 -27 -3 -11 -4 27 -33 61 -33 39z"/>
<path d="M1448 143 c-16 -19 -5 -57 20 -69 28 -14 62 -7 62 12 0 10 -7 13 -24
8 -13 -3 -27 -1 -30 5 -5 7 4 11 23 11 33 0 49 16 33 32 -15 15 -72 16 -84 1z
m66 -5 c-2 -3 2 -9 8 -12 7 -3 0 -3 -16 1 -33 7 -52 -13 -33 -36 10 -11 9 -13
-3 -9 -16 5 -25 31 -17 51 2 7 18 12 35 12 16 0 28 -3 26 -7z"/>
<path d="M2176 123 c-4 -27 -2 -41 8 -49 17 -12 86 -6 86 7 0 5 -12 6 -27 3
-23 -5 -26 -4 -15 7 16 17 15 44 -3 59 -12 10 -13 6 -8 -24 4 -24 2 -36 -6
-36 -6 0 -11 16 -11 35 0 46 -16 45 -24 -2z"/>
<path d="M2630 145 c7 -9 10 -27 6 -45 -5 -27 -3 -30 18 -30 22 0 24 3 19 43
-8 56 -13 60 -13 9 0 -23 -4 -42 -10 -42 -5 0 -7 7 -4 15 8 21 -4 65 -17 65
-8 0 -7 -5 1 -15z"/>
</g>
</svg>
